<?xml version="1.0" encoding="UTF-8"?>
<svg version="1.1" xmlns="http://www.w3.org/2000/svg" width="614" height="460">
<path d="M0 0 C0.88429688 0.7321875 1.76859375 1.464375 2.6796875 2.21875 C22.61247603 19.42516928 34.28024078 43.98400554 36.65844727 70.06469727 C38.52373908 95.76788635 31.84096244 121.43710988 15.6875 141.8125 C14.46755739 143.21640221 13.23983748 144.61363627 12 146 C11.236875 147.010625 10.47375 148.02125 9.6875 149.0625 C5.55555125 153.57881607 0.82891386 157.25512802 -4 161 C-5.15822266 161.91652344 -5.15822266 161.91652344 -6.33984375 162.8515625 C-28.37053883 179.34633933 -56.62996856 184.06570154 -83.546875 180.50390625 C-101.9847631 177.06138917 -118.87231764 169.28841805 -133 157 C-134.06177748 156.16574627 -135.1241789 155.33228537 -136.1875 154.5 C-156.4831707 136.45940382 -167.23161097 110.04711484 -168.89794922 83.36962891 C-170.09455495 55.58432943 -160.08530636 29.11758707 -141.5 8.5625 C-124.89130147 -9.09291665 -103.79337423 -19.37231066 -80 -23 C-79.07703125 -23.1546875 -78.1540625 -23.309375 -77.203125 -23.46875 C-49.33261168 -27.01297713 -21.3301126 -17.74470906 0 0 Z M-121 20 C-121.62132812 20.52851563 -122.24265625 21.05703125 -122.8828125 21.6015625 C-132.13824012 29.99602011 -139.1287048 42.26021863 -143 54 C-143.31710938 54.92039063 -143.63421875 55.84078125 -143.9609375 56.7890625 C-149.95840955 77.64265799 -146.22977843 99.48365111 -136.14453125 118.26171875 C-124.93338974 138.26671071 -107.44800219 150.97872798 -85.5625 157.375 C-63.70504351 162.77962596 -42.04949213 158.39323692 -23 147 C-4.31047486 134.99472856 7.72099957 117.31974124 13.109375 95.8359375 C17.40274399 75.56877282 13.53408801 54.62593466 3 37 C-9.61976953 18.0703457 -26.65046278 5.25871464 -49 0 C-75.46347132 -4.82584611 -100.91056606 1.75484196 -121 20 Z " fill="#000000" transform="translate(353,131)"/>
<path d="M0 0 C5.41688038 4.52794728 10.48300772 9.30843344 15.48828125 14.28515625 C16.27269089 15.06386581 17.05710052 15.84257538 17.86528015 16.6448822 C19.51126475 18.28147342 21.1558412 19.91948199 22.79907227 21.55883789 C25.31535448 24.06534339 27.84210271 26.56098535 30.36914062 29.05664062 C31.97201099 30.65298659 33.57424695 32.24996988 35.17578125 33.84765625 C35.93095535 34.59048355 36.68612946 35.33331085 37.46418762 36.09864807 C38.16218979 36.79965134 38.86019196 37.5006546 39.5793457 38.22290039 C40.19332718 38.83323624 40.80730865 39.44357208 41.43989563 40.07240295 C45.13760025 44.64112582 46.23498861 50.37725887 45.859375 56.16796875 C44.65349378 63.78337079 40.370211 68.43222019 34.375 73 C28.3204026 74.79395479 21.398025 75.23451593 15.39599609 73.05395508 C10.35770216 70.00671088 6.55600747 65.9224865 2.4453125 61.73828125 C1.54376434 60.83248825 0.64221619 59.92669525 -0.28665161 58.99345398 C-2.66926793 56.59692772 -5.04516887 54.19412423 -7.41802979 51.78796387 C-9.84609229 49.32908142 -12.28278808 46.87878681 -14.71875 44.42773438 C-19.48712726 39.62633009 -24.24683076 34.81645745 -29 30 C-25.28984473 25.5733929 -21.47851707 21.35785124 -17.3828125 17.28515625 C-16.88079315 16.78455185 -16.3787738 16.28394745 -15.86154175 15.76817322 C-14.28506329 14.19721402 -12.70511427 12.62980123 -11.125 11.0625 C-10.04403726 9.98656273 -8.96330617 8.91039269 -7.8828125 7.83398438 C-5.25787359 5.21996708 -2.62981372 2.60911404 0 0 Z " fill="#000000" transform="translate(384,278)"/>
</svg>
